<?xml version="1.0" encoding="UTF-8"?>
<svg width="21px" height="20px" viewBox="0 0 21 20" version="1.1" xmlns="http://www.w3.org/2000/svg" xmlns:xlink="http://www.w3.org/1999/xlink">
    <title>comment-white</title>
    <g id="Page-1" stroke="none" stroke-width="1" fill="none" fill-rule="evenodd">
        <g id="comment-white" fill="#FFFFFF" fill-rule="nonzero">
            <path d="M17.6029412,0 L2.77941176,0 C1.41672794,0 0.308823529,1.10790441 0.308823529,2.47058824 L0.308823529,13.5882353 C0.308823529,14.9509191 1.41672794,16.0588235 2.77941176,16.0588235 L6.48529412,16.0588235 L6.48529412,19.3014706 C6.48529412,19.5755515 6.70919118,19.7647059 6.94852941,19.7647059 C7.04117647,19.7647059 7.13768382,19.7376838 7.22261029,19.6720588 L12.0441176,16.0588235 L17.6029412,16.0588235 C18.965625,16.0588235 20.0735294,14.9509191 20.0735294,13.5882353 L20.0735294,2.47058824 C20.0735294,1.10790441 18.965625,0 17.6029412,0 Z M18.8382353,13.5882353 C18.8382353,14.2676471 18.2823529,14.8235294 17.6029412,14.8235294 L11.6310662,14.8235294 L11.3029412,15.0705882 L7.72058824,17.7573529 L7.72058824,14.8235294 L2.77941176,14.8235294 C2.1,14.8235294 1.54411765,14.2676471 1.54411765,13.5882353 L1.54411765,2.47058824 C1.54411765,1.79117647 2.1,1.23529412 2.77941176,1.23529412 L17.6029412,1.23529412 C18.2823529,1.23529412 18.8382353,1.79117647 18.8382353,2.47058824 L18.8382353,13.5882353 Z M11.1176471,9.26470588 L5.55882353,9.26470588 C5.38897059,9.26470588 5.25,9.40367647 5.25,9.57352941 L5.25,10.1911765 C5.25,10.3610294 5.38897059,10.5 5.55882353,10.5 L11.1176471,10.5 C11.2875,10.5 11.4264706,10.3610294 11.4264706,10.1911765 L11.4264706,9.57352941 C11.4264706,9.40367647 11.2875,9.26470588 11.1176471,9.26470588 Z M14.8235294,5.55882353 L5.55882353,5.55882353 C5.38897059,5.55882353 5.25,5.69779412 5.25,5.86764706 L5.25,6.48529412 C5.25,6.65514706 5.38897059,6.79411765 5.55882353,6.79411765 L14.8235294,6.79411765 C14.9933824,6.79411765 15.1323529,6.65514706 15.1323529,6.48529412 L15.1323529,5.86764706 C15.1323529,5.69779412 14.9933824,5.55882353 14.8235294,5.55882353 Z" id="Shape"></path>
        </g>
    </g>
</svg>