<?xml version="1.0" encoding="UTF-8"?>
<svg width="18px" height="18px" viewBox="0 0 18 18" version="1.1" xmlns="http://www.w3.org/2000/svg" xmlns:xlink="http://www.w3.org/1999/xlink">
    <title>Instagram</title>
    <g id="Instagram" stroke="none" stroke-width="1" fill="none" fill-rule="evenodd">
        <path d="M9.9394776,1.00086241 C10.8105676,1.00283386 11.2454535,1.00851049 11.638443,1.02115259 L11.8182837,1.02749387 C11.9680648,1.03321021 12.120622,1.04003115 12.2983898,1.04814217 C13.1498965,1.08697982 13.731445,1.22222884 14.240304,1.42000552 C14.7663747,1.62441921 15.2125155,1.89796583 15.6572907,2.34270931 C16.1020342,2.78748454 16.3755808,3.23362529 16.5800262,3.75969602 C16.7777712,4.26855496 16.9130202,4.8501035 16.9518578,5.70161023 C16.9599689,5.87937795 16.9667898,6.03193517 16.9725061,6.18171661 L16.9788474,6.36155779 C16.9914895,6.75454874 16.9971661,7.18943888 16.9991376,8.06054078 L16.9999506,8.73814786 L16.9999506,8.73814786 L17,9.00001588 C17,9.09054311 16.999984,9.17777136 16.9999506,9.26188009 L16.9991376,9.9394776 C16.9971661,10.8105676 16.9914895,11.2454535 16.9788474,11.638443 L16.9725061,11.8182837 C16.9667898,11.9680648 16.9599689,12.120622 16.9518578,12.2983898 C16.9130202,13.1498965 16.7777712,13.731445 16.5800262,14.240304 C16.3755808,14.7663747 16.1020342,15.2125155 15.6572907,15.6572907 C15.2125155,16.1020342 14.7663747,16.3755808 14.240304,16.5800262 C13.731445,16.7777712 13.1498965,16.9130202 12.2983898,16.9518578 C12.120622,16.9599689 11.9680648,16.9667898 11.8182837,16.9725061 L11.638443,16.9788474 C11.2454535,16.9914895 10.8105676,16.9971661 9.9394776,16.9991376 L9.26188009,16.9999506 L9.26188009,16.9999506 L9.00001588,17 C8.90948732,17 8.8222578,16.999984 8.73814786,16.9999506 L8.06054078,16.9991376 C7.18943888,16.9971661 6.75454874,16.9914895 6.36155779,16.9788474 L6.18171661,16.9725061 C6.03193517,16.9667898 5.87937795,16.9599689 5.70161023,16.9518578 C4.8501035,16.9130202 4.26855496,16.7777712 3.75969602,16.5800262 C3.23362529,16.3755808 2.78748454,16.1020342 2.34270931,15.6572907 C1.89796583,15.2125155 1.62441921,14.7663747 1.42000552,14.240304 C1.22222884,13.731445 1.08697982,13.1498965 1.04814217,12.2983898 C1.04003115,12.120622 1.03321021,11.9680648 1.02749387,11.8182837 L1.02115259,11.638443 C1.00851049,11.2454535 1.00283386,10.8105676 1.00086241,9.9394776 L1.00086241,8.06054078 C1.00283386,7.18943888 1.00851049,6.75454874 1.02115259,6.36155779 L1.02749387,6.18171661 C1.03321021,6.03193517 1.04003115,5.87937795 1.04814217,5.70161023 C1.08697982,4.8501035 1.22222884,4.26855496 1.42000552,3.75969602 C1.62441921,3.23362529 1.89796583,2.78748454 2.34270931,2.34270931 C2.78748454,1.89796583 3.23362529,1.62441921 3.75969602,1.42000552 C4.26855496,1.22222884 4.8501035,1.08697982 5.70161023,1.04814217 C5.87937795,1.04003115 6.03193517,1.03321021 6.18171661,1.02749387 L6.36155779,1.02115259 C6.75454874,1.00851049 7.18943888,1.00283386 8.06054078,1.00086241 Z M9.71760616,2.44186472 L8.28241511,2.44186472 C7.35942324,2.4431575 6.89820907,2.44765776 6.50565107,2.45888823 L6.32791396,2.46456223 C6.15218888,2.47073978 5.97820543,2.47846642 5.7673135,2.4880885 C4.9873214,2.52365528 4.56372745,2.65398211 4.28182899,2.76354048 C3.9084096,2.90866563 3.64191283,3.08202191 3.36198324,3.36198324 C3.08202191,3.64191283 2.90866563,3.9084096 2.76354048,4.28182899 C2.65398211,4.56372745 2.52365528,4.9873214 2.4880885,5.7673135 C2.47846642,5.97820543 2.47073978,6.15218888 2.46456223,6.32791396 L2.45888823,6.50565107 C2.44765776,6.89820907 2.4431575,7.35942324 2.44186472,8.28241511 L2.44186472,9.71760616 C2.4431575,10.6405849 2.44765776,11.101794 2.45888823,11.4943501 L2.46456223,11.6720865 C2.47073978,11.8478111 2.47846642,12.0217946 2.4880885,12.2326865 C2.52365528,13.0126786 2.65398211,13.4362726 2.76354048,13.718171 C2.90866563,14.0915904 3.08205366,14.3580872 3.36198324,14.6380168 C3.64191283,14.9179781 3.9084096,15.0913344 4.28182899,15.2364595 C4.56372745,15.3460179 4.9873214,15.4763447 5.7673135,15.5119115 C5.97818161,15.5215336 6.15214324,15.5292602 6.32785145,15.5354378 L6.50557344,15.5411118 C6.89810277,15.5523422 7.35931623,15.5568425 8.28236562,15.5581353 L9.71765696,15.5581353 C10.6406967,15.5568425 11.1019144,15.5523422 11.4944418,15.5411118 L11.6721624,15.5354378 C11.8478687,15.5292602 12.0218263,15.5215336 12.2326865,15.5119115 C13.0126786,15.4763447 13.4362726,15.3460179 13.718171,15.2364595 C14.0915904,15.0913344 14.3580872,14.9179781 14.6380168,14.6380168 C14.9179781,14.3580872 15.0913344,14.0915904 15.2364595,13.718171 C15.3460179,13.4362726 15.4763447,13.0126786 15.5119115,12.2326865 C15.5215336,12.0217946 15.5292602,11.8478111 15.5354378,11.6720865 L15.5411118,11.4943501 C15.5523422,11.101794 15.5568425,10.6405849 15.5581353,9.71760616 L15.5581353,8.28241511 C15.5568425,7.35942324 15.5523422,6.89820907 15.5411118,6.50565107 L15.5354378,6.32791396 C15.5292602,6.15218888 15.5215336,5.97820543 15.5119115,5.7673135 C15.4763447,4.9873214 15.3460179,4.56372745 15.2364595,4.28182899 C15.0913344,3.9084096 14.9179781,3.64191283 14.6380168,3.36198324 C14.3580872,3.08202191 14.0915904,2.90866563 13.718171,2.76354048 C13.4362726,2.65398211 13.0126786,2.52365528 12.2326865,2.4880885 C12.0217946,2.47846642 11.8478111,2.47073978 11.6720865,2.46456223 L11.4943501,2.45888823 C11.101794,2.44765776 10.6405849,2.4431575 9.71760616,2.44186472 Z M9.00001588,4.89189447 C11.2688586,4.89189447 13.1081055,6.73114137 13.1081055,9.00001588 C13.1081055,11.2688586 11.2688586,13.1081055 9.00001588,13.1081055 C6.73114137,13.1081055 4.89189447,11.2688586 4.89189447,9.00001588 C4.89189447,6.73114137 6.73114137,4.89189447 9.00001588,4.89189447 Z M9.00001588,6.33333333 C7.52723379,6.33333333 6.33333333,7.52723379 6.33333333,9.00001588 C6.33333333,10.4727662 7.52723379,11.6666667 9.00001588,11.6666667 C10.4727662,11.6666667 11.6666667,10.4727662 11.6666667,9.00001588 C11.6666667,7.52723379 10.4727662,6.33333333 9.00001588,6.33333333 Z M13.2704107,3.76957215 C13.8006097,3.76957215 14.2304279,4.19939028 14.2304279,4.7295893 C14.2304279,5.25978831 13.8006097,5.68957469 13.2704107,5.68957469 C12.7402434,5.68957469 12.3104253,5.25978831 12.3104253,4.7295893 C12.3104253,4.19939028 12.7402434,3.76957215 13.2704107,3.76957215 Z" id="Path" fill="#FFFFFF"></path>
    </g>
</svg>