<?xml version="1.0" encoding="UTF-8"?>
<svg width="22px" height="20px" viewBox="0 0 18 16" version="1.1" xmlns="http://www.w3.org/2000/svg" xmlns:xlink="http://www.w3.org/1999/xlink">
    <title>Shape</title>
    <defs>
        <filter id="filter-1">
            <feColorMatrix in="SourceGraphic" type="matrix" values="0 0 0 0 0.403922 0 0 0 0 0.462745 0 0 0 0 0.494118 0 0 0 1.000000 0"></feColorMatrix>
        </filter>
    </defs>
    <g id="Page-1" stroke="none" stroke-width="1" fill="none" fill-rule="evenodd">
        <g id="Front" transform="translate(-167.000000, -1174.000000)">
            <g id="thumbs-up-light" transform="translate(167.000000, 1171.000000)" filter="url(#filter-1)">
                <g transform="translate(0.000000, 3.000000)">
                    <path d="M17.4605625,8.92759331 C17.8095586,8.52528083 18,8 18,7.35837464 C18,6.18106219 16.8724336,5.090531 15.4431914,5.090531 L12.9769805,5.090531 C13.283543,4.54778102 13.7045391,3.87456231 13.7045391,2.90874986 C13.7045742,1.08349995 12.8853984,0 10.7898047,0 C9.73529297,0 9.34396875,1.18493744 9.14347266,2.1008749 C9.02369531,2.64809362 8.91052734,3.16499984 8.56251562,3.47434358 C7.73388281,4.21093729 6.46875,6 5.70874219,6.36328093 C5.63178516,6.39209343 5.53345313,6.41478093 5.42636719,6.43274968 C5.22341016,6.17137469 4.88429297,6 4.5,6 L1.125,6 C0.503683594,6 0,6.44771843 0,7 L0,15 C0,15.5522805 0.503683594,16 1.125,16 L4.5,16 C5.12131641,16 5.625,15.5522805 5.625,15 L5.625,14.7268743 C6.76740234,14.7268743 9.16477734,16.000218 11.8636523,15.9995617 C12.0571875,15.9996555 13.1872852,16.0004992 13.3055156,15.9995617 C15.3896484,16 16.5488555,14.878093 16.4813555,13.1935306 C17.0131641,12.6395619 17.2737422,11.8392494 17.1220781,11.0964994 C17.5599844,10.486312 17.6538516,9.62556202 17.4605625,8.92759331 Z M1.125,14.9999997 L1.125,6.99999965 L4.5,6.99999965 L4.5,14.9999997 L1.125,14.9999997 Z M16.0318477,8.63599957 C16.59375,8.99999955 16.59375,10.4999995 15.8347266,10.8442807 C16.3101094,11.5555307 15.8822578,12.5072806 15.3068555,12.7816556 C15.5984063,14.4235305 14.6402578,14.988093 13.2954961,14.999593 C13.1790586,15.0005305 11.9860312,14.999593 11.8636875,14.999593 C9.29977734,14.999593 7.12666406,13.7268743 5.62503516,13.7268743 L5.62503516,7.36328088 C6.95070703,7.36328088 8.16700781,5.24018724 9.35803125,4.18146854 C10.4318789,3.22693734 10.073918,1.63603117 10.7898398,0.99968745 C12.5796094,0.99968745 12.5796094,2.10959365 12.5796094,2.90878111 C12.5796094,4.22718729 11.5057617,4.81784351 11.5057617,6.0905622 L15.4432266,6.0905622 C16.2423281,6.0905622 16.8715195,6.72693717 16.8750667,7.36328088 C16.8785156,7.9996246 16.59375,8.49999958 16.0318477,8.63599957 Z M3.65625,13.4999993 C3.65625,13.9142181 3.27849609,14.2499994 2.8125,14.2499994 C2.34650391,14.2499994 1.96875,13.9142181 1.96875,13.4999993 C1.96875,13.0857806 2.34650391,12.7499994 2.8125,12.7499994 C3.27849609,12.7499994 3.65625,13.0857806 3.65625,13.4999993 Z" id="Shape" fill="#67767E" fill-rule="nonzero"></path>
                </g>
            </g>
        </g>
    </g>
</svg>
