<?xml version="1.0" encoding="UTF-8"?>
<svg width="22px" height="20px" viewBox="0 0 22 20" version="1.1" xmlns="http://www.w3.org/2000/svg" xmlns:xlink="http://www.w3.org/1999/xlink">
    <title>Shape_1_</title>
    <g id="Page-1" stroke="none" stroke-width="1" fill="none" fill-rule="evenodd">
        <g id="like-before-white" fill="#FFFFFF" fill-rule="nonzero">
            <path d="M21.3,11.1 C21.8,10.6 22,10 22,9.2 C22,7.8 20.6,6.4 18.9,6.4 L15.9,6.4 C16.3,5.7 16.8,4.9 16.8,3.7 C16.8,1.5 15.8,0.1 13.2,0.1 C11.9,0.1 11.4,1.5 11.2,2.7 C11.1,3.4 10.9,4 10.5,4.4 C9.5,5.4 7.9,7.6 7,8 C6.9,8 6.8,8.1 6.6,8.1 C6.4,7.8 6,7.6 5.5,7.6 L1.4,7.6 C0.6,7.6 0,8.1 0,8.8 L0,18.6 C0,19.3 0.6,19.8 1.4,19.8 L5.5,19.8 C6.3,19.8 6.9,19.3 6.9,18.6 L6.9,18.3 C8.3,18.3 11.2,19.9 14.5,19.9 C14.7,19.9 16.1,19.9 16.3,19.9 C18.8,19.9 20.3,18.5 20.2,16.5 C20.8,15.8 21.2,14.8 21,13.9 C21.5,13 21.6,12 21.3,11.1 Z M1.4,18.6 L1.4,8.8 L5.5,8.8 L5.5,18.6 L1.4,18.6 Z M19.6,10.8 C20.3,11.2 20.3,13.1 19.4,13.5 C20,14.4 19.5,15.5 18.8,15.9 C19.2,17.9 18,18.6 16.3,18.6 C16.2,18.6 14.7,18.6 14.6,18.6 C11.5,18.6 8.8,17 7,17 L7,9.2 C8.6,9.2 10.1,6.6 11.6,5.3 C12.9,4.1 12.5,2.2 13.3,1.4 C15.5,1.4 15.5,2.8 15.5,3.7 C15.5,5.3 14.2,6 14.2,7.6 L19,7.6 C20,7.6 20.7,8.4 20.8,9.2 C20.6,10 20.3,10.6 19.6,10.8 Z M4.5,16.7 C4.5,17.2 4,17.6 3.5,17.6 C3,17.6 2.5,17.2 2.5,16.7 C2.5,16.2 3,15.8 3.5,15.8 C4,15.8 4.5,16.2 4.5,16.7 Z" id="Shape_1_"></path>
        </g>
    </g>
</svg>