<?xml version="1.0" encoding="utf-8"?>
<!-- Generator: Adobe Illustrator 25.0.1, SVG Export Plug-In . SVG Version: 6.00 Build 0)  -->
<svg version="1.1" id="Ebene_1" xmlns="http://www.w3.org/2000/svg" xmlns:xlink="http://www.w3.org/1999/xlink" x="0px" y="0px"
	 width="22px" height="22px" viewBox="0 0 22 22" style="enable-background:new 0 0 22 22;" xml:space="preserve">
<style type="text/css">
	.st0{fill:#A0A9AE;}
</style>
<g id="login">
	<path id="Shape" class="st0" d="M14.7,12.3c-1.2,0-1.7,0.7-3.7,0.7s-2.5-0.7-3.7-0.7c-3,0-5.5,2.5-5.5,5.5v1.7c0,1.1,0.9,2,2,2
		h14.4c1.1,0,2-0.9,2-2v-1.7C20.2,14.8,17.7,12.3,14.7,12.3z M18.9,19.5c0,0.4-0.3,0.7-0.7,0.7H3.8c-0.4,0-0.7-0.3-0.7-0.7v-1.7
		c0-2.3,1.9-4.2,4.2-4.2c0.8,0,1.6,0.7,3.7,0.7c2.1,0,2.9-0.7,3.7-0.7c2.3,0,4.2,1.9,4.2,4.2V19.5z M11,11c2.9,0,5.3-2.4,5.3-5.2
		S13.9,0.5,11,0.5S5.7,2.9,5.7,5.8S8.1,11,11,11z M11,1.8c2.2,0,3.9,1.8,3.9,3.9S13.2,9.7,11,9.7S7.1,7.9,7.1,5.8S8.8,1.8,11,1.8z"
		/>
</g>
</svg>
