<?xml version="1.0" encoding="UTF-8"?>
<svg width="22px" height="22px" viewBox="0 0 22 22" version="1.1" xmlns="http://www.w3.org/2000/svg" xmlns:xlink="http://www.w3.org/1999/xlink">
    <title>login</title>
    <g id="login" stroke="none" stroke-width="1" fill="none" fill-rule="evenodd">
        <path d="M14.6723958,12.3125 C13.4952474,12.3125 12.9292318,12.96875 10.9973958,12.96875 C9.0655599,12.96875 8.50364583,12.3125 7.32239583,12.3125 C4.27903646,12.3125 1.80989583,14.7816406 1.80989583,17.825 L1.80989583,19.53125 C1.80989583,20.6181641 2.69173177,21.5 3.77864583,21.5 L18.2161458,21.5 C19.3030599,21.5 20.1848958,20.6181641 20.1848958,19.53125 L20.1848958,17.825 C20.1848958,14.7816406 17.7157552,12.3125 14.6723958,12.3125 Z M18.8723958,19.53125 C18.8723958,19.8921875 18.5770833,20.1875 18.2161458,20.1875 L3.77864583,20.1875 C3.41770833,20.1875 3.12239583,19.8921875 3.12239583,19.53125 L3.12239583,17.825 C3.12239583,15.5076172 5.00501302,13.625 7.32239583,13.625 C8.12630208,13.625 8.92610677,14.28125 10.9973958,14.28125 C13.0645833,14.28125 13.8684896,13.625 14.6723958,13.625 C16.9897786,13.625 18.8723958,15.5076172 18.8723958,17.825 L18.8723958,19.53125 Z M10.9973958,11 C13.8972005,11 16.2473958,8.64980469 16.2473958,5.75 C16.2473958,2.85019531 13.8972005,0.5 10.9973958,0.5 C8.09759115,0.5 5.74739583,2.85019531 5.74739583,5.75 C5.74739583,8.64980469 8.09759115,11 10.9973958,11 Z M10.9973958,1.8125 C13.1671224,1.8125 14.9348958,3.58027344 14.9348958,5.75 C14.9348958,7.91972656 13.1671224,9.6875 10.9973958,9.6875 C8.82766927,9.6875 7.05989583,7.91972656 7.05989583,5.75 C7.05989583,3.58027344 8.82766927,1.8125 10.9973958,1.8125 Z" id="Shape" fill="#A0A9AE" fill-rule="nonzero"></path>
    </g>
</svg>