<?xml version="1.0" encoding="UTF-8"?>
<svg width="170px" height="28px" viewBox="0 0 170 28" version="1.1" xmlns="http://www.w3.org/2000/svg" xmlns:xlink="http://www.w3.org/1999/xlink">
    <title>news mag</title>
    <g id="Page-1" stroke="none" stroke-width="1" fill="none" fill-rule="evenodd">
        <g id="Group-16-Copy" transform="translate(-1125.000000, -54.000000)" fill-rule="nonzero">
            <g id="news-mag" transform="translate(1125.000000, 54.000000)">
                <path d="M5.44601753,19.8920265 L5.44601753,8.53976458 C5.45880161,6.008517 6.9673229,4.52556387 9.16618444,4.52556387 C11.3522619,4.52556387 12.669022,5.95738068 12.6562379,8.36078748 L12.6562379,19.8920265 L18.1022555,19.8920265 L18.1022555,7.3891975 C18.1022555,2.81249732 15.4175989,-7.28661576e-13 11.3266937,-7.28661576e-13 C8.4119238,-7.28661576e-13 6.30255081,1.43181682 5.42044938,3.72016691 L5.19033596,3.72016691 L5.19033596,0.255681574 L-1.98951966e-14,0.255681574 L-1.98951966e-14,19.8920265 L5.44601753,19.8920265 Z M31.3337983,20.2755488 C36.1917482,20.2755488 39.4644723,17.9104943 40.2315171,14.2670318 L35.1945901,13.9346458 C34.6448747,15.430383 33.238626,16.2102118 31.4232868,16.2102118 C28.7002781,16.2102118 26.9744274,14.4076567 26.9744274,11.4801027 L26.9744274,11.4673186 L40.3465738,11.4673186 L40.3465738,9.9715814 C40.3465738,3.29829231 36.3068049,-7.28661576e-13 31.1164689,-7.28661576e-13 C25.3380654,-7.28661576e-13 21.5923303,4.10368927 21.5923303,10.1633426 C21.5923303,16.3891889 25.2869291,20.2755488 31.3337983,20.2755488 Z M35.2201582,8.09232183 L26.9744274,8.09232183 C27.0894841,5.85510805 28.7897666,4.06533703 31.2059575,4.06533703 C33.5710121,4.06533703 35.2073741,5.75283542 35.2201582,8.09232183 Z M53.3735704,19.8920265 L56.7485671,7.54260644 L56.9914646,7.54260644 L60.3664614,19.8920265 L66.1320809,19.8920265 L71.4630417,0.255681574 L65.9658879,0.255681574 L62.9744135,13.3721463 L62.8082205,13.3721463 L59.5866326,0.255681574 L54.1789673,0.255681574 L51.0085158,13.4488508 L50.8295387,13.4488508 L47.786928,0.255681574 L42.27699,0.255681574 L47.6207349,19.8920265 L53.3735704,19.8920265 Z M82.3934582,20.2755488 C87.4815216,20.2755488 91.124984,17.6803809 91.1377681,13.806805 C91.124984,10.9687395 89.2712926,9.26845707 85.4616371,8.48862827 L81.9076632,7.77271986 C80.07954,7.37641342 79.4019838,6.74999356 79.4147679,5.80397174 C79.4019838,4.6278365 80.731528,3.86079177 82.4190264,3.86079177 C84.31107,3.86079177 85.436069,4.89630215 85.7045346,6.16192594 L90.6903253,5.85510805 C90.2045303,2.23721378 87.2897604,-7.28661576e-13 82.3295378,-7.28661576e-13 C77.3053949,-7.28661576e-13 73.9943185,2.32670233 74.0071026,6.11078963 C73.9943185,9.05112773 75.8480099,10.9559555 79.6832336,11.7230002 L83.0837985,12.4005564 C84.796865,12.7457265 85.5766938,13.3721463 85.602262,14.3565204 C85.5766938,15.5198716 84.31107,16.3508367 82.4062423,16.3508367 C80.4630624,16.3508367 79.1718704,15.5198716 78.8394844,13.9218617 L73.4829554,14.2031115 C73.9943185,17.9616306 77.1903382,20.2755488 82.3934582,20.2755488 Z" id="news" fill="#6982FF"></path>
                <path d="M120.391423,20.2340265 C121.835423,20.2340265 123.165423,19.8540265 124.875423,19.0180265 L124.761423,17.6120265 C124.229423,17.6880265 123.811423,17.7260265 123.431423,17.7260265 C122.253423,17.7260265 121.835423,17.3460265 121.835423,16.4720265 C121.835423,16.1680265 121.911423,15.5600265 122.063423,14.9140265 L124.115423,5.71802648 C124.267423,4.99602648 124.305423,4.57802648 124.305423,4.04602648 C124.305423,1.95602648 123.241423,0.360026484 120.771423,0.360026484 C117.921423,0.360026484 115.527423,2.86802648 113.703423,5.60402648 C113.779423,5.14802648 113.817423,4.65402648 113.817423,4.31202648 C113.817423,2.14602648 112.829423,0.360026484 110.359423,0.360026484 C107.433423,0.360026484 105.115423,2.83002648 103.253423,5.79402648 C103.367423,5.11002648 103.405423,4.50202648 103.405423,3.97002648 C103.405423,1.69002648 102.455423,0.664026484 100.821423,0.664026484 C99.2254225,0.664026484 97.7054225,1.15802648 96.5274225,1.76602648 L96.2234225,3.09602648 C98.2374225,3.09602648 98.9594225,3.66602648 98.9594225,4.95802648 C98.9594225,5.30002648 98.9214225,5.60402648 98.8074225,6.13602648 L95.8434225,19.8920265 L100.441423,19.8920265 L102.759423,9.10002648 C104.203423,6.78202648 106.331423,4.08402648 108.003423,4.08402648 C108.839423,4.08402648 109.181423,4.54002648 109.181423,5.41402648 C109.181423,5.71802648 109.105423,6.17402648 109.029423,6.55402648 L106.217423,19.8920265 L110.777423,19.8920265 L113.095423,8.94802648 C114.577423,6.70602648 116.667423,4.08402648 118.301423,4.08402648 C119.175423,4.08402648 119.517423,4.54002648 119.517423,5.37602648 C119.517423,5.68002648 119.441423,6.13602648 119.365423,6.47802648 L117.503423,14.8760265 C117.313423,15.6740265 117.237423,16.3960265 117.237423,17.0420265 C117.237423,19.0940265 118.187423,20.2340265 120.391423,20.2340265 Z M131.753423,20.3860265 C134.641423,20.3860265 136.959423,18.1060265 138.555423,15.5980265 C138.479423,16.0920265 138.441423,16.5100265 138.441423,16.9280265 C138.441423,18.9800265 139.353423,20.2340265 141.557423,20.2340265 C143.077423,20.2340265 144.445423,19.8160265 145.927423,19.0180265 L145.813423,17.6120265 C145.547423,17.6500265 144.977423,17.6880265 144.635423,17.6880265 C143.457423,17.6880265 142.963423,17.3460265 142.963423,16.2820265 C142.963423,15.8640265 143.001423,15.6360265 143.153423,14.9140265 L145.167423,5.90802648 C145.661423,3.78002648 146.307423,1.88002648 146.915423,0.778026484 L144.179423,0.778026484 C143.647423,1.23402648 143.115423,1.72802648 142.697423,2.45002648 C142.355423,1.08202648 140.987423,0.360026484 139.125423,0.360026484 C132.893423,0.360026484 127.155423,7.42802648 127.155423,15.0660265 C127.155423,18.4100265 128.827423,20.3860265 131.753423,20.3860265 Z M133.653423,17.3080265 C132.627423,17.3080265 131.943423,16.5100265 131.943423,14.4960265 C131.943423,8.72002648 135.211423,2.64002648 139.087423,2.64002648 C140.151423,2.64002648 140.835423,3.05802648 141.139423,3.70402648 L139.163423,12.0260265 C137.681423,14.4960265 135.401423,17.3080265 133.653423,17.3080265 Z M154.211423,27.4920265 C159.683423,27.4920265 164.243423,25.3260265 164.243423,20.4620265 C164.243423,17.1560265 162.001423,15.9400265 158.163423,15.6740265 L154.249423,15.4080265 C153.375423,15.3320265 153.185423,14.9520265 153.185423,14.4960265 C153.185423,13.6980265 154.401423,12.9760265 155.731423,12.6720265 L156.567423,12.6720265 C162.875423,12.6720265 165.117423,9.40402648 165.117423,6.78202648 C165.117423,5.11002648 164.395423,3.85602648 163.559423,3.13402648 C164.433423,3.62802648 165.383423,3.81802648 166.181423,3.81802648 C167.207423,3.81802648 167.891423,3.70402648 168.879423,3.21002648 L167.853423,0.056026484 C166.751423,0.816026484 165.725423,1.31002648 164.433423,1.31002648 C162.799423,1.31002648 160.671423,0.360026484 158.011423,0.360026484 C153.451423,0.360026484 149.803423,3.05802648 149.803423,7.23802648 C149.803423,9.70802648 151.209423,11.6080265 153.603423,12.1780265 C150.829423,12.9380265 148.967423,14.3060265 148.967423,16.4720265 C148.967423,18.3720265 150.183423,18.9800265 152.007423,19.2080265 C153.413423,19.3600265 155.009423,19.5120265 156.377423,19.5880265 C158.809423,19.7400265 159.987423,20.3480265 159.987423,21.8680265 C159.987423,24.1480265 158.201423,25.4780265 154.401423,25.4780265 C151.551423,25.4780265 150.373423,24.6800265 150.373423,23.0840265 C150.373423,21.9820265 150.791423,21.1080265 151.171423,20.5380265 L148.473423,20.6140265 C147.333423,21.1080265 146.117423,22.0200265 146.117423,23.6160265 C146.117423,26.0860265 148.739423,27.4920265 154.211423,27.4920265 Z M156.985423,10.6580265 C155.351423,10.6580265 154.325423,9.70802648 154.325423,7.80802648 C154.325423,4.57802648 155.845423,2.45002648 157.973423,2.45002648 C159.721423,2.45002648 160.671423,3.40002648 160.671423,5.26202648 C160.671423,8.07402648 159.569423,10.6580265 156.985423,10.6580265 Z" id="mag" fill="#FFFFFF"></path>
            </g>
        </g>
    </g>
</svg>