<?xml version="1.0" encoding="UTF-8"?>
<svg width="140px" height="24px" viewBox="0 0 140 24" version="1.1" xmlns="http://www.w3.org/2000/svg" xmlns:xlink="http://www.w3.org/1999/xlink">
    <title>news mag</title>
    <g id="Page-1" stroke="none" stroke-width="1" fill="none" fill-rule="evenodd">
        <g id="Desktop-HD-Copy" transform="translate(-147.000000, -32.000000)" fill-rule="nonzero">
            <g id="news-mag" transform="translate(147.086647, 32.053987)">
                <path d="M4.4735144,16.3398789 L4.4735144,7.01480662 C4.48401561,4.93556753 5.7231581,3.71742746 7.52936579,3.71742746 C9.32507228,3.71742746 10.4066967,4.8935627 10.3961954,6.86778972 L10.3961954,16.3398789 L14.8697098,16.3398789 L14.8697098,6.06969795 C14.8697098,2.31026565 12.6644563,0 9.30406986,0 C6.90979455,0 5.17709531,1.17613524 4.45251199,3.05585139 L4.26349025,3.05585139 L4.26349025,0.21002415 L9.33856167e-14,0.21002415 L9.33856167e-14,16.3398789 L4.4735144,16.3398789 Z M25.7384772,16.6549151 C29.728936,16.6549151 32.4172451,14.7121917 33.0473176,11.7193476 L28.9098418,11.4463162 C28.4582899,12.6749575 27.3031571,13.3155311 25.8119856,13.3155311 C23.5752284,13.3155311 22.1575654,11.8348609 22.1575654,9.43008435 L22.1575654,9.41958314 L33.1418285,9.41958314 L33.1418285,8.19094186 C33.1418285,2.70931154 29.8234469,0 25.5599566,0 C20.8134108,0 17.736557,3.37088761 17.736557,8.34845998 C17.736557,13.462548 20.771406,16.6549151 25.7384772,16.6549151 Z M28.9308442,6.64726436 L22.1575654,6.64726436 C22.2520763,4.80955304 23.6487369,3.33938399 25.6334651,3.33938399 C27.5761885,3.33938399 28.920343,4.72554338 28.9308442,6.64726436 Z M43.8425757,16.3398789 L46.6148944,6.19571244 L46.8144174,6.19571244 L49.5867362,16.3398789 L54.3227808,16.3398789 L58.7017843,0.21002415 L54.1862651,0.21002415 L51.7289825,10.9842631 L51.5924668,10.9842631 L48.9461625,0.21002415 L44.5041517,0.21002415 L41.8998523,11.0472703 L41.7528354,11.0472703 L39.253548,0.21002415 L34.7275275,0.21002415 L39.1170323,16.3398789 L43.8425757,16.3398789 Z M67.6803407,16.6549151 C71.8598213,16.6549151 74.8526654,14.52317 74.8631666,11.3413041 C74.8526654,9.01003605 73.3299903,7.61337545 70.2006305,6.97280179 L67.2812948,6.38473417 C65.7796221,6.05919674 65.2230581,5.54463757 65.2335593,4.76754821 C65.2230581,3.80143712 66.3151837,3.17136467 67.7013431,3.17136467 C69.2555218,3.17136467 70.1796281,4.02196248 70.4001534,5.06158202 L74.4956244,4.80955304 C74.0965785,1.83771132 71.7023032,0 67.6278347,0 C63.5008601,0 60.7810474,1.91121977 60.7915486,5.01957719 C60.7810474,7.43485492 62.3037224,8.99953484 65.4540847,9.62960729 L68.2474059,10.1861713 C69.6545677,10.4697039 70.2951414,10.9842631 70.3161438,11.792856 C70.2951414,12.7484659 69.2555218,13.4310444 67.6908419,13.4310444 C66.0946584,13.4310444 65.0340364,12.7484659 64.761005,11.435815 L60.3609991,11.6668416 C60.7810474,14.7541966 63.4063492,16.6549151 67.6803407,16.6549151 Z" id="news" fill="#ea5666"></path>
                <path d="M98.8929542,16.6208075 C100.079097,16.6208075 101.171597,16.3086646 102.57624,15.6219503 L102.482597,14.4670218 C102.045597,14.5294503 101.70224,14.5606646 101.390097,14.5606646 C100.422454,14.5606646 100.079097,14.2485218 100.079097,13.5305932 C100.079097,13.2808789 100.141526,12.7814503 100.266383,12.2508075 L101.951954,4.69695033 C102.076811,4.1038789 102.108026,3.76052175 102.108026,3.32352175 C102.108026,1.60673604 101.234026,0.29573604 99.2050971,0.29573604 C96.8640256,0.29573604 94.8975256,2.3558789 93.3992399,4.60330747 C93.4616685,4.22873604 93.4928828,3.82295033 93.4928828,3.54202175 C93.4928828,1.76280747 92.6813114,0.29573604 90.6523828,0.29573604 C88.2488828,0.29573604 86.3448114,2.32466461 84.8153114,4.7593789 C84.9089542,4.19752175 84.9401685,3.69809318 84.9401685,3.26109318 C84.9401685,1.38823604 84.1598114,0.545450326 82.8175971,0.545450326 C81.5065971,0.545450326 80.2580256,0.95123604 79.2903828,1.45066461 L79.0406685,2.54316461 C80.6950256,2.54316461 81.2880971,3.0113789 81.2880971,4.07266461 C81.2880971,4.35359318 81.2568828,4.60330747 81.1632399,5.04030747 L78.7285256,16.3398789 L82.5054542,16.3398789 L84.4095256,7.47502175 C85.5956685,5.57095033 87.3436685,3.35473604 88.7170971,3.35473604 C89.4038114,3.35473604 89.6847399,3.72930747 89.6847399,4.44723604 C89.6847399,4.69695033 89.6223114,5.07152175 89.5598828,5.38366461 L87.2500256,16.3398789 L90.9957399,16.3398789 L92.8998114,7.35016461 C94.1171685,5.50852175 95.8339542,3.35473604 97.1761685,3.35473604 C97.8940971,3.35473604 98.1750256,3.72930747 98.1750256,4.41602175 C98.1750256,4.66573604 98.1125971,5.04030747 98.0501685,5.32123604 L96.5206685,12.2195932 C96.3645971,12.8750932 96.3021685,13.4681646 96.3021685,13.9988075 C96.3021685,15.6843789 97.0825256,16.6208075 98.8929542,16.6208075 Z M108.226026,16.7456646 C110.598311,16.7456646 112.502383,14.8728075 113.813383,12.8126646 C113.750954,13.2184503 113.71974,13.5618075 113.71974,13.9051646 C113.71974,15.590736 114.468883,16.6208075 116.279311,16.6208075 C117.527883,16.6208075 118.651597,16.2774503 119.868954,15.6219503 L119.775311,14.4670218 C119.556811,14.498236 119.088597,14.5294503 118.807669,14.5294503 C117.840026,14.5294503 117.43424,14.2485218 117.43424,13.3745218 C117.43424,13.0311646 117.465454,12.8438789 117.590311,12.2508075 L119.244669,4.85302175 C119.650454,3.10502175 120.181097,1.54430747 120.680526,0.639093183 L118.433097,0.639093183 C117.996097,1.01366461 117.559097,1.41945033 117.21574,2.01252175 C116.934811,0.888807469 115.811097,0.29573604 114.281597,0.29573604 C109.162454,0.29573604 104.449097,6.10159318 104.449097,12.3756646 C104.449097,15.1225218 105.822526,16.7456646 108.226026,16.7456646 Z M109.78674,14.2173075 C108.943954,14.2173075 108.382097,13.5618075 108.382097,11.9074503 C108.382097,7.1628789 111.066526,2.16859318 114.250383,2.16859318 C115.124383,2.16859318 115.68624,2.51195033 115.935954,3.04259318 L114.312811,9.87852175 C113.095454,11.9074503 111.222597,14.2173075 109.78674,14.2173075 Z M126.673669,22.582736 C131.168526,22.582736 134.91424,20.8035218 134.91424,16.8080932 C134.91424,14.0924503 133.072597,13.0935932 129.919954,12.8750932 L126.704883,12.6565932 C125.986954,12.5941646 125.830883,12.2820218 125.830883,11.9074503 C125.830883,11.2519503 126.82974,10.6588789 127.92224,10.4091646 L128.608954,10.4091646 C133.790526,10.4091646 135.632169,7.72473604 135.632169,5.57095033 C135.632169,4.19752175 135.039097,3.16745033 134.352383,2.5743789 C135.070311,2.98016461 135.850669,3.13623604 136.506169,3.13623604 C137.348954,3.13623604 137.910811,3.04259318 138.722383,2.63680747 L137.879597,0.0460217547 C136.974383,0.670307469 136.131597,1.07609318 135.070311,1.07609318 C133.728097,1.07609318 131.980097,0.29573604 129.795097,0.29573604 C126.049383,0.29573604 123.052811,2.51195033 123.052811,5.94552175 C123.052811,7.97445033 124.20774,9.53516461 126.17424,10.0033789 C123.895597,10.6276646 122.366097,11.7513789 122.366097,13.5305932 C122.366097,15.0913075 123.364954,15.590736 124.86324,15.7780218 C126.018169,15.9028789 127.329169,16.027736 128.452883,16.0901646 C130.450597,16.2150218 131.41824,16.7144503 131.41824,17.9630218 C131.41824,19.8358789 129.951169,20.9283789 126.82974,20.9283789 C124.488669,20.9283789 123.521026,20.2728789 123.521026,18.9618789 C123.521026,18.0566646 123.864383,17.338736 124.176526,16.8705218 L121.960311,16.9329503 C121.023883,17.338736 120.025026,18.0878789 120.025026,19.3988789 C120.025026,21.4278075 122.178811,22.582736 126.673669,22.582736 Z M128.952311,8.75480747 C127.610097,8.75480747 126.767311,7.97445033 126.767311,6.41373604 C126.767311,3.76052175 128.015883,2.01252175 129.763883,2.01252175 C131.19974,2.01252175 131.980097,2.7928789 131.980097,4.3223789 C131.980097,6.63223604 131.074883,8.75480747 128.952311,8.75480747 Z" id="mag" fill="#000000"></path>
            </g>
        </g>
    </g>
</svg>
