<?xml version="1.0" encoding="UTF-8"?>
<svg width="18px" height="18px" viewBox="0 0 18 18" version="1.1" xmlns="http://www.w3.org/2000/svg" xmlns:xlink="http://www.w3.org/1999/xlink">
    <title>Mail</title>
    <g id="Mail" stroke="none" stroke-width="1" fill="none" fill-rule="evenodd">
        <path d="M8.9996,8.102016 C10.30968,8.102016 16.6796,4.52 16.6796,4.52 L16.68984,3.88 C16.68984,3.17344 16.1164,2.6 15.40792,2.6 L2.59128,2.6 C1.88344,2.6 1.31,3.17344 1.31,3.88 L1.31,4.45024 C1.31,4.45024 7.74968,8.102016 8.9996,8.102016 Z" id="Path" fill="#FFFFFF"></path>
        <path d="M8.9996,9.862016 C7.74968,9.862016 1.3196,6.44 1.32024,6.44 L1.31,14.12 C1.31,14.82656 1.88408,15.4 2.59128,15.4 L15.40792,15.4 C16.1164,15.4 16.68984,14.82656 16.68984,14.12 L16.6796,6.44 C16.6796,6.44 10.36984,9.862016 8.9996,9.862016 Z" id="Path" fill="#FFFFFF"></path>
    </g>
</svg>