<?xml version="1.0" encoding="utf-8"?>
<!-- Generator: Adobe Illustrator 25.0.1, SVG Export Plug-In . SVG Version: 6.00 Build 0)  -->
<svg version="1.1" id="Ebene_1" xmlns="http://www.w3.org/2000/svg" xmlns:xlink="http://www.w3.org/1999/xlink" x="0px" y="0px"
	 width="28px" height="28px" viewBox="0 0 28 28" style="enable-background:new 0 0 28 28;" xml:space="preserve">
<style type="text/css">
	.st0{fill:#A0A9AE;}
</style>
<path class="st0" d="M15.9,13.9L26.6,3.1c0.2-0.2,0.2-0.5,0-0.6l-1.3-1.3c-0.2-0.2-0.5-0.2-0.6,0L14,11.9L3.3,1.2
	C3.1,1,2.8,1,2.7,1.2L1.4,2.5C1.2,2.7,1.2,3,1.4,3.1l10.7,10.7L1.4,24.6c-0.2,0.2-0.2,0.5,0,0.6l1.3,1.3c0.2,0.2,0.5,0.2,0.6,0
	L14,15.8l10.7,10.7c0.2,0.2,0.5,0.2,0.6,0l1.3-1.3c0.2-0.2,0.2-0.5,0-0.6L15.9,13.9z"/>
</svg>
