<?xml version="1.0" encoding="UTF-8"?>
<svg class="up" width="12px" height="12px" viewBox="0 0 12 12" version="1.1" xmlns="http://www.w3.org/2000/svg" xmlns:xlink="http://www.w3.org/1999/xlink">
    <g id="Page-1" stroke="none" stroke-width="1" fill="none" fill-rule="evenodd">
        <g id="Front" transform="translate(-1282.000000, -1272.000000)" fill="#6982FF" fill-rule="nonzero">
            <g id="Group-8" transform="translate(147.000000, 1253.000000)">
                <g id="Group-7" transform="translate(1007.000000, 10.000000)">
                    <path d="M141.247636,14.9924237 L140.57698,14.3295142 C140.417784,14.172157 140.160361,14.172157 140.001165,14.3295142 L134.747693,19.5223048 L134.747693,8.0921391 C134.747693,7.87116929 134.564787,7.69037581 134.341235,7.69037581 L133.392832,7.69037581 C133.16928,7.69037581 132.986374,7.87116929 132.986374,8.0921391 L132.986374,19.5223048 L127.732902,14.3295142 C127.573706,14.172157 127.316282,14.172157 127.157086,14.3295142 L126.48643,14.9924237 C126.327234,15.149781 126.327234,15.4042311 126.48643,15.5615883 L133.579125,22.5723578 C133.738322,22.7297151 133.995745,22.7297151 134.154941,22.5723578 L141.247636,15.5615883 C141.406832,15.4042311 141.406832,15.149781 141.247636,14.9924237 Z" id="Path" transform="translate(133.867033, 15.190376) scale(-1, -1) rotate(45.000000) translate(-133.867033, -15.190376) "></path>
                </g>
            </g>
        </g>
    </g>
</svg>
