<?xml version="1.0" encoding="UTF-8"?>
<svg width="22px" height="22px" viewBox="0 0 22 22" version="1.1" xmlns="http://www.w3.org/2000/svg" xmlns:xlink="http://www.w3.org/1999/xlink">
    <title>search</title>
    <g id="search" stroke="none" stroke-width="1" fill="none" fill-rule="evenodd">
        <path d="M21.355427,20.2521605 L16.0646697,14.9614033 C15.9703384,14.8670719 15.8472975,14.8178556 15.7160539,14.8178556 L15.2936136,14.8178556 C16.7003808,13.2962502 17.5616669,11.2660759 17.5616669,9.03083346 C17.5616669,4.31836824 13.7432987,0.5 9.03083346,0.5 C4.31836824,0.5 0.5,4.31836824 0.5,9.03083346 C0.5,13.7432987 4.31836824,17.5616669 9.03083346,17.5616669 C11.2660759,17.5616669 13.2962502,16.7003808 14.8178556,15.297715 L14.8178556,15.7160539 C14.8178556,15.8472975 14.8711733,15.9703384 14.9614033,16.0646697 L20.2521605,21.355427 C20.4449246,21.548191 20.7566281,21.548191 20.9493921,21.355427 L21.355427,20.9493921 C21.548191,20.7566281 21.548191,20.4449246 21.355427,20.2521605 Z M9.03083346,16.249231 C5.040208,16.249231 1.81243592,13.0214589 1.81243592,9.03083346 C1.81243592,5.040208 5.040208,1.81243592 9.03083346,1.81243592 C13.0214589,1.81243592 16.249231,5.040208 16.249231,9.03083346 C16.249231,13.0214589 13.0214589,16.249231 9.03083346,16.249231 Z" id="Shape" fill="#A0A9AE" fill-rule="nonzero"></path>
    </g>
</svg>