<?xml version="1.0" encoding="UTF-8"?>
<svg width="23px" height="20px" viewBox="0 0 19 16" version="1.1" xmlns="http://www.w3.org/2000/svg" xmlns:xlink="http://www.w3.org/1999/xlink">
    <title>Shape</title>
    <defs>
        <filter id="filter-1">
            <feColorMatrix in="SourceGraphic" type="matrix" values="0 0 0 0 0.403922 0 0 0 0 0.462745 0 0 0 0 0.494118 0 0 0 1.000000 0"></feColorMatrix>
        </filter>
    </defs>
    <g id="Page-1" stroke="none" stroke-width="1" fill="none" fill-rule="evenodd">
        <g id="Front" transform="translate(-300.000000, -1174.000000)">
            <g id="share" transform="translate(167.000000, 1171.000000)" filter="url(#filter-1)">
                <g transform="translate(133.500000, 3.000000)">
                    <path d="M17.6533437,6.1359375 L12.1534375,0.3864375 C11.38175,-0.4203125 10,0.1170625 10,1.2505 L10,4.0053125 C4.829625,4.06734375 0,5.00321875 0,10.3496875 C0,13.3178125 1.745,15.0444062 2.7853125,15.8050312 C3.54259375,16.3588437 4.59846875,15.6490312 4.3378125,14.7265937 C3.15428125,10.5277187 5.17421875,10.061625 10,10.005 L10,12.75 C10,13.8824687 11.3809375,14.4216875 12.1534375,13.6140625 L17.653375,7.8640625 C18.1155625,7.380625 18.1155625,6.619375 17.6533437,6.1359375 L17.6533437,6.1359375 Z M16.930625,7.1728125 L11.430625,12.9228125 C11.2764688,13.0840625 11,12.976875 11,12.75 L11,9 C5.643875,9 1.77146875,9.30334375 3.375625,14.990625 C2.25,14.1675 1,12.6746875 1,10.3496875 C1,5.349375 6.0901875,5 11,5 L11,1.25 C11,1.0230625 11.2765937,0.9159375 11.430625,1.0771875 L16.930625,6.8271875 C17.0234399,6.92370229 17.0234399,7.07629771 16.930625,7.1728125 L16.930625,7.1728125 Z" id="Shape" fill="#67767E" fill-rule="nonzero"></path>
                </g>
            </g>
        </g>
    </g>
</svg>
