<?xml version="1.0" encoding="UTF-8"?>
<svg width="23px" height="20px" viewBox="0 0 23 20" version="1.1" xmlns="http://www.w3.org/2000/svg" xmlns:xlink="http://www.w3.org/1999/xlink">
    <title>share-white</title>
    <g id="Page-1" stroke="none" stroke-width="1" fill="none" fill-rule="evenodd">
        <g id="share-white" fill="#FFFFFF" fill-rule="nonzero">
            <path d="M21.9751003,7.42771382 L15.3173191,0.467792763 C14.3831711,-0.508799342 12.7105263,0.141707237 12.7105263,1.51376316 L12.7105263,4.84853618 C6.45165132,4.92362664 0.605263158,6.05652796 0.605263158,12.5285691 C0.605263158,16.1215625 2.71763158,18.2116496 3.97695724,19.1324062 C4.89366612,19.8028108 6.17183059,18.9435641 5.85629934,17.8269292 C4.42360362,12.7440805 6.86879112,12.1798618 12.7105263,12.1113158 L12.7105263,15.4342105 C12.7105263,16.8050937 14.3821875,17.4578322 15.3173191,16.4801809 L21.9751382,9.51965461 C22.5346283,8.93444079 22.5346283,8.01292763 21.9751003,7.42771382 L21.9751003,7.42771382 Z M21.1002303,8.68287829 L14.4423355,15.6434046 C14.2557254,15.838602 13.9210526,15.7088487 13.9210526,15.4342105 L13.9210526,10.8947368 C7.43732237,10.8947368 2.7496727,11.2619424 4.69154605,18.1465461 C3.32894737,17.1501316 1.81578947,15.3430428 1.81578947,12.5285691 C1.81578947,6.47555921 7.97759539,6.05263158 13.9210526,6.05263158 L13.9210526,1.51315789 C13.9210526,1.23844408 14.2558766,1.10876645 14.4423355,1.30396382 L21.1002303,8.26449013 C21.2125851,8.38132382 21.2125851,8.5660446 21.1002303,8.68287829 L21.1002303,8.68287829 Z" id="Shape"></path>
        </g>
    </g>
</svg>