<?xml version="1.0" encoding="UTF-8"?>
<svg width="18px" height="18px" viewBox="0 0 18 18" version="1.1" xmlns="http://www.w3.org/2000/svg" xmlns:xlink="http://www.w3.org/1999/xlink">
    <title>Tiktok</title>
    <g id="Tiktok" stroke="none" stroke-width="1" fill="none" fill-rule="evenodd">
        <path d="M9.38545455,0.015 C10.3381818,0 11.2836364,0.0075 12.2290909,0 C12.2872727,1.1475 12.6872727,2.3175 13.5018182,3.1275 C14.3163636,3.96 15.4654545,4.3425 16.5854545,4.47 L16.5854545,7.4925 C15.5381818,7.455 14.4836364,7.23 13.5309091,6.765 C13.1163636,6.57 12.7309091,6.3225 12.3527273,6.0675 C12.3454545,8.2575 12.36,10.4475 12.3381818,12.63 C12.28,13.68 11.9454545,14.7225 11.3563636,15.585 C10.4036364,17.025 8.75272727,17.9625 7.05818182,17.9925 C6.01818182,18.0525 4.97818182,17.76 4.09090909,17.22 C2.62181818,16.3275 1.58909091,14.6925 1.43636364,12.9375 C1.42181818,12.5625 1.41454545,12.1875 1.42909091,11.82 C1.56,10.395 2.24363636,9.03 3.30545455,8.1 C4.51272727,7.02 6.2,6.5025 7.77818182,6.81 C7.79272727,7.92 7.74909091,9.03 7.74909091,10.14 C7.02909091,9.9 6.18545455,9.9675 5.55272727,10.4175 C5.09454545,10.725 4.74545455,11.1975 4.56363636,11.73 C4.41090909,12.1125 4.45454545,12.5325 4.46181818,12.9375 C4.63636364,14.1675 5.78545455,15.2025 7.00727273,15.09 C7.82181818,15.0825 8.6,14.595 9.02181818,13.8825 C9.16,13.635 9.31272727,13.38 9.32,13.0875 C9.39272727,11.745 9.36363636,10.41 9.37090909,9.0675 C9.37818182,6.045 9.36363636,3.03 9.38545455,0.015 Z" id="Path" fill="#FFFFFF" fill-rule="nonzero"></path>
    </g>
</svg>