<?xml version="1.0" encoding="UTF-8"?>
<svg width="18px" height="18px" viewBox="0 0 18 18" version="1.1" xmlns="http://www.w3.org/2000/svg" xmlns:xlink="http://www.w3.org/1999/xlink">
    <title>Twitter</title>
    <g id="Twitter" stroke="none" stroke-width="1" fill="none" fill-rule="evenodd">
        <path d="M8.76891296,5.51733137 L8.8035956,6.08923196 L8.22555148,6.0192033 C6.12147088,5.75076018 4.2832906,4.84038789 2.72257149,3.31142923 L1.95955322,2.55278568 L1.76301827,3.11301479 C1.34682646,4.36185886 1.61272676,5.68073152 2.47979295,6.56776099 C2.94222821,7.05796144 2.83818029,7.12799003 2.04047945,6.83620411 C1.76301827,6.74283255 1.52023972,6.67280396 1.4971179,6.70781825 C1.41619181,6.78951833 1.69365292,7.85161936 1.9133097,8.27179121 C2.21389265,8.85536314 2.82661941,9.42726373 3.49715064,9.7657355 L4.06363388,10.0341786 L3.39310265,10.04585 C2.74569325,10.04585 2.72257149,10.0575215 2.79193677,10.3026217 C3.02315443,11.0612653 3.93646414,11.8665946 4.95382176,12.2167379 L5.67059651,12.461838 L5.04630886,12.8353242 C4.12143828,13.3722104 3.03471531,13.6756678 1.94799241,13.6990107 C1.42775269,13.7106822 1,13.7573679 1,13.7923822 C1,13.9090966 2.4104276,14.5626973 3.23125027,14.8194689 C5.69371827,15.5781125 8.61862145,15.2513122 10.8151892,13.9557823 C12.3759083,13.0337386 13.9366274,11.2013225 14.664963,9.42726373 C15.058033,8.48187713 15.451103,6.75450403 15.451103,5.92583181 C15.451103,5.38894559 15.4857857,5.31891693 16.1331951,4.67698767 C16.5147042,4.30350167 16.8730916,3.8950013 16.9424568,3.77828686 C17.0580657,3.55652952 17.0465048,3.55652952 16.4568998,3.75494397 C15.4742248,4.10508722 15.3354942,4.05840138 15.8210512,3.53318664 C16.1794386,3.15970056 16.6071912,2.48275708 16.6071912,2.28434257 C16.6071912,2.24932827 16.433778,2.30768546 16.237243,2.41272842 C16.0291471,2.52944279 15.5667118,2.70451442 15.2198854,2.80955738 L14.5955977,3.00797182 L14.0291145,2.62281434 C13.7169706,2.41272842 13.2776571,2.17929961 13.0464394,2.10927094 C12.4568345,1.94587079 11.5550856,1.96921368 11.0232851,2.15595672 C9.57817475,2.68117153 8.66486504,4.03505849 8.76891296,5.51733137 Z" id="Path" fill="#FFFFFF"></path>
    </g>
</svg>