<?xml version="1.0" encoding="utf-8"?>
<!-- Generator: Adobe Illustrator 25.0.1, SVG Export Plug-In . SVG Version: 6.00 Build 0)  -->
<svg version="1.1" id="Ebene_1" xmlns="http://www.w3.org/2000/svg" xmlns:xlink="http://www.w3.org/1999/xlink" x="0px" y="0px"
	 width="22px" height="22px" viewBox="0 0 22 22" style="enable-background:new 0 0 22 22;" xml:space="preserve">
<style type="text/css">
	.st0{fill:#EBB748;}
	.st1{fill:#7DC3E2;}
</style>
<g>
	<path class="st0" d="M8.8,2.5c0.4,0,0.6-0.3,0.6-0.6V0.9c0-0.4-0.3-0.6-0.6-0.6S8.2,0.6,8.2,0.9v0.9C8.2,2.2,8.5,2.5,8.8,2.5z"/>
	<path class="st0" d="M14.1,4.2c0.2,0,0.3-0.1,0.5-0.2l0.9-0.9c0.1-0.1,0.2-0.3,0.2-0.5c0-0.2-0.1-0.3-0.2-0.5
		c-0.2-0.2-0.7-0.2-0.9,0l-0.9,0.9c-0.1,0.1-0.2,0.3-0.2,0.5c0,0.2,0.1,0.3,0.2,0.5C13.7,4.1,13.9,4.2,14.1,4.2z"/>
	<path class="st0" d="M3.1,4c0.1,0.1,0.3,0.2,0.5,0.2C3.7,4.2,3.9,4.1,4,4c0.1-0.1,0.2-0.3,0.2-0.5c0-0.2-0.1-0.3-0.2-0.5L3.1,2.2
		C2.9,2,2.5,2,2.2,2.2C2.1,2.4,2,2.5,2,2.7S2.1,3,2.2,3.1L3.1,4z"/>
	<path class="st1" d="M20.3,14.4c0.2-0.7,0.1-1.4-0.1-2c-0.3-0.8-0.9-1.4-1.7-1.8c-0.4-0.2-0.8-0.3-1.2-0.3
		c-0.6-1.2-1.5-2.1-2.7-2.6c-1.3-0.6-2.8-0.6-4.2-0.1c-1.8,0.7-3,2.2-3.4,4.1c-2.5,0.5-4.2,2.9-4,5.5c0.3,2.5,2.4,4.4,4.9,4.5h9.6
		c1.1,0,2.2-0.4,2.9-1.2c0.8-0.8,1.2-1.8,1.2-2.9C21.7,16.3,21.2,15.2,20.3,14.4z M19.2,15.2c0.8,0.5,1.2,1.4,1.3,2.4
		c0,0.8-0.3,1.5-0.8,2c-0.5,0.5-1.3,0.8-2,0.9H7.9c-1.9,0-3.5-1.5-3.7-3.3c-0.1-1,0.2-2,0.8-2.8c0.6-0.8,1.5-1.3,2.5-1.4
		c0.3,0,0.5-0.3,0.6-0.6c0.1-1.6,1.2-2.9,2.6-3.5c0.5-0.2,1-0.3,1.5-0.3c0.6,0,1.1,0.1,1.7,0.4c1,0.4,1.8,1.3,2.2,2.3
		c0.1,0.2,0.3,0.4,0.6,0.4c0,0,0,0,0.1,0c0.4,0,0.7,0,1,0.1c0.5,0.2,0.9,0.6,1.1,1.1c0.2,0.5,0.2,1,0,1.5
		C18.8,14.7,18.9,15,19.2,15.2z"/>
	<path class="st0" d="M1.8,8.2H0.9c-0.4,0-0.6,0.3-0.6,0.6s0.3,0.6,0.6,0.6h0.9c0.4,0,0.6-0.3,0.6-0.6S2.2,8.2,1.8,8.2z"/>
	<path class="st0" d="M4.3,12.1c0.1,0,0.2,0,0.3-0.1c0.1-0.1,0.3-0.2,0.3-0.4c0-0.2,0-0.3-0.1-0.5c-0.4-0.7-0.6-1.5-0.6-2.3
		c0-1.6,0.9-3.2,2.3-4C7.6,4.2,8.8,4,10,4.4c1.2,0.3,2.2,1.1,2.8,2.2c0.2,0.3,0.6,0.4,0.9,0.2c0.1-0.1,0.3-0.2,0.3-0.4
		c0-0.2,0-0.3-0.1-0.5c-0.8-1.4-2.1-2.3-3.6-2.7C8.8,2.7,7.2,2.9,5.9,3.7c-1.8,1-3,3-3,5.1c0,1,0.3,2,0.8,2.9
		C3.8,11.9,4,12.1,4.3,12.1z"/>
</g>
</svg>
